<?xml version="1.0" standalone="no"?>
<svg version="1.0" xmlns="http://www.w3.org/2000/svg"
 width="256.000000pt" height="256.000000pt" viewBox="0 0 256.000000 256.000000"
 preserveAspectRatio="xMidYMid meet">

<g transform="translate(0.000000,256.000000) scale(0.100000,-0.100000)"
fill="#000000" stroke="none">
<path d="M0 1280 l0 -1280 1280 0 1280 0 0 1280 0 1280 -1280 0 -1280 0 0
-1280z m1625 660 c145 -45 265 -134 356 -263 48 -68 53 -91 21 -100 -9 -2
-125 -36 -257 -75 -132 -39 -334 -96 -450 -127 -371 -100 -389 -106 -423 -132
-38 -29 -65 -83 -64 -128 1 -33 37 -71 78 -81 36 -9 105 20 167 70 172 141
548 325 807 396 73 20 194 27 216 12 33 -22 81 -181 91 -299 17 -233 -81 -407
-292 -515 -151 -77 -335 -131 -486 -144 -173 -15 -520 58 -761 160 -21 9 -49
16 -64 16 -34 0 -100 -37 -119 -67 -19 -29 -30 -29 -60 1 -21 21 -23 28 -13
53 15 40 3 81 -27 95 -14 6 -25 18 -25 27 1 31 38 97 73 132 23 22 48 65 72
124 88 214 236 480 331 592 104 122 289 224 484 268 91 21 254 13 345 -15z"/>
</g>
</svg>
